<?xml version="1.0" encoding="utf-8"?>
<!-- Generator: Adobe Illustrator 23.0.4, SVG Export Plug-In . SVG Version: 6.00 Build 0)  -->
<svg version="1.1" id="Layer_1" xmlns="http://www.w3.org/2000/svg" xmlns:xlink="http://www.w3.org/1999/xlink" x="0px" y="0px"
	 viewBox="0 0 150 150" enable-background="new 0 0 150 150" xml:space="preserve">
<g>
	<path d="M142.19,128.95l-13.51,13.42c-4.97,4.96-11.67,7.63-18.66,7.63c-7.08,0-13.78-2.76-18.75-7.81l-18.93-19.03
		c-4.96-4.96-7.63-11.67-7.63-18.66c0-7.26,2.94-14.15,8.09-19.21l-8.09-8.09c-5.05,5.15-11.86,8.09-19.12,8.09
		c-6.99,0-13.79-2.76-18.75-7.72L7.72,58.46C2.67,53.4,0,46.78,0,39.71c0-6.99,2.85-13.79,7.81-18.66L21.32,7.63
		C26.29,2.67,33,0,39.98,0c7.08,0,13.79,2.76,18.75,7.81l18.93,19.02c4.96,4.96,7.63,11.67,7.63,18.66c0,7.26-2.94,14.15-8.09,19.21
		l8.09,8.09c5.06-5.15,11.85-8.09,19.12-8.09c6.99,0,13.79,2.76,18.75,7.72l19.12,19.12c5.06,5.06,7.72,11.67,7.72,18.75
		C150,117.28,147.15,124.08,142.19,128.95z M65.17,39.25L46.23,20.22c-1.65-1.65-3.95-2.57-6.25-2.57c-2.3,0-4.59,0.92-6.25,2.48
		L20.22,33.55c-1.65,1.65-2.57,3.86-2.57,6.16c0,2.39,0.92,4.6,2.57,6.25l19.12,19.12c1.65,1.65,3.95,2.48,6.25,2.48
		c2.67,0,4.78-0.92,6.62-2.85c-3.03-3.03-6.62-5.61-6.62-10.29c0-4.87,3.95-8.82,8.82-8.82c4.69,0,7.26,3.58,10.29,6.62
		c1.93-1.84,3.03-3.95,3.03-6.71C67.74,43.2,66.82,40.9,65.17,39.25z M129.78,104.04l-19.12-19.12c-1.65-1.65-3.95-2.57-6.25-2.57
		c-2.67,0-4.78,1.01-6.62,2.94c3.03,3.03,6.62,5.61,6.62,10.29c0,4.87-3.95,8.82-8.82,8.82c-4.69,0-7.26-3.58-10.29-6.62
		c-1.93,1.84-3.03,3.95-3.03,6.71c0,2.3,0.92,4.6,2.57,6.25l18.93,19.03c1.65,1.65,3.95,2.48,6.25,2.48c2.3,0,4.6-0.83,6.25-2.39
		l13.51-13.42c1.65-1.65,2.57-3.86,2.57-6.16C132.35,107.9,131.43,105.7,129.78,104.04z"/>
</g>
</svg>
