<?xml version="1.0" encoding="utf-8"?>
<!-- Generator: Adobe Illustrator 23.0.4, SVG Export Plug-In . SVG Version: 6.00 Build 0)  -->
<svg version="1.1" id="Layer_1" xmlns="http://www.w3.org/2000/svg" xmlns:xlink="http://www.w3.org/1999/xlink" x="0px" y="0px"
	 viewBox="0 0 128.58 122.89" enable-background="new 0 0 128.58 122.89" xml:space="preserve">
<g>
	<path fill="#0077B5" d="M15.4,28.63h-0.17C5.94,28.63,0,22.27,0,14.31C0,6.19,6.19,0,15.57,0c9.46,0,15.32,6.19,15.4,14.31
		C31.06,22.27,25.03,28.63,15.4,28.63z M29.21,122.89H1.59V39.93h27.62V122.89z M128.58,122.89h-27.54V78.52
		c0-11.13-4.02-18.75-13.98-18.75c-7.62,0-12.14,5.11-14.15,10.05c-0.67,1.84-0.92,4.27-0.92,6.78v46.29H44.45
		c0.33-75.17,0-82.96,0-82.96h27.54v12.05h-0.17C75.42,46.29,81.95,38,96.85,38c18.17,0,31.73,11.89,31.73,37.33V122.89z"/>
</g>
</svg>
