<?xml version="1.0" encoding="utf-8"?>
<!-- Generator: Adobe Illustrator 23.0.4, SVG Export Plug-In . SVG Version: 6.00 Build 0)  -->
<svg version="1.1" id="Layer_1" xmlns="http://www.w3.org/2000/svg" xmlns:xlink="http://www.w3.org/1999/xlink" x="0px" y="0px"
	 viewBox="0 0 150 117.86" enable-background="new 0 0 150 117.86" xml:space="preserve">
<g>
	<path d="M150,104.47c0,7.36-6.03,13.39-13.39,13.39H13.39C6.03,117.86,0,111.83,0,104.47V13.39C0,6.03,6.03,0,13.39,0h123.22
		C143.97,0,150,6.03,150,13.39V104.47z M136.61,10.71H13.39c-1.42,0-2.68,1.25-2.68,2.67c0,9.54,4.77,17.84,12.3,23.77
		c11.22,8.8,22.43,17.66,33.57,26.54C61.02,67.3,69.06,75,74.92,75H75h0.09c5.85,0,13.9-7.7,18.33-11.3
		c11.13-8.88,22.36-17.74,33.57-26.54c5.44-4.26,12.3-13.55,12.3-20.67C139.29,14.4,139.78,10.71,136.61,10.71z M139.29,40.18
		c-1.76,2.01-3.68,3.84-5.78,5.52c-11.97,9.2-24.02,18.58-35.66,28.29c-6.28,5.28-14.06,11.72-22.77,11.72H75h-0.08
		c-8.7,0-16.49-6.44-22.77-11.72c-11.63-9.71-23.69-19.09-35.66-28.29c-2.09-1.68-4.02-3.51-5.78-5.52v64.29
		c0,1.42,1.25,2.67,2.68,2.67h123.22c1.41,0,2.67-1.25,2.67-2.67V40.18z"/>
</g>
</svg>
