<?xml version="1.0" encoding="utf-8"?>
<!-- Generator: Adobe Illustrator 23.0.4, SVG Export Plug-In . SVG Version: 6.00 Build 0)  -->
<svg version="1.1" id="Layer_1" xmlns="http://www.w3.org/2000/svg" xmlns:xlink="http://www.w3.org/1999/xlink" x="0px" y="0px"
	 viewBox="0 0 131.93 107.15" enable-background="new 0 0 131.93 107.15" xml:space="preserve">
<g>
	<path fill="#1DA1F2" d="M118.37,26.7c0.08,1.17,0.08,2.34,0.08,3.52c0,35.74-27.21,76.93-76.93,76.93
		c-15.32,0-29.55-4.44-41.52-12.14c2.18,0.25,4.27,0.33,6.53,0.33c12.64,0,24.28-4.27,33.57-11.55
		c-11.89-0.25-21.85-8.04-25.28-18.75c1.67,0.25,3.35,0.42,5.11,0.42c2.43,0,4.86-0.33,7.12-0.92C14.65,62.03,5.36,51.15,5.36,38
		c0-0.08,0-0.25,0-0.33c3.6,2.01,7.79,3.26,12.22,3.43C10.3,36.25,5.52,27.96,5.52,18.58c0-5.02,1.34-9.63,3.68-13.64
		c13.31,16.41,33.32,27.12,55.75,28.29c-0.42-2.01-0.67-4.1-0.67-6.19C64.29,12.14,76.34,0,91.33,0c7.79,0,14.82,3.26,19.76,8.54
		c6.11-1.17,11.97-3.43,17.16-6.53c-2.01,6.28-6.28,11.55-11.89,14.9c5.44-0.59,10.71-2.09,15.57-4.19
		C128.24,18.08,123.64,22.85,118.37,26.7z"/>
</g>
</svg>
